<?xml version="1.0" standalone="no"?>
<!DOCTYPE svg PUBLIC "-//W3C//DTD SVG 20010904//EN"
 "http://www.w3.org/TR/2001/REC-SVG-20010904/DTD/svg10.dtd">
<svg version="1.0" xmlns="http://www.w3.org/2000/svg"
 width="1200.000000pt" height="375.000000pt" viewBox="0 0 1200.000000 375.000000"
 preserveAspectRatio="xMidYMid meet">

<g transform="translate(0.000000,375.000000) scale(0.100000,-0.100000)"
fill="#000000" stroke="none">
<path d="M1600 3725 c-79 -20 -126 -41 -201 -91 -141 -93 -183 -157 -472 -726
-469 -922 -849 -1732 -894 -1908 -107 -417 126 -829 542 -960 99 -31 264 -38
374 -16 237 48 431 163 676 398 l112 107 99 -97 c285 -279 526 -405 805 -419
149 -7 238 11 374 77 118 58 195 116 267 204 116 141 177 303 185 496 8 188
-9 240 -245 745 -354 757 -841 1734 -943 1889 -93 141 -211 240 -342 286 -80
28 -255 36 -337 15z m322 -263 c80 -39 151 -113 209 -216 59 -106 498 -983
639 -1276 302 -630 432 -917 456 -1010 25 -93 22 -246 -5 -330 -91 -287 -374
-449 -673 -385 -168 35 -340 141 -533 328 l-127 122 97 130 c416 556 498 1036
229 1334 -64 71 -152 128 -254 167 -69 25 -87 28 -215 28 -112 1 -151 -3 -195
-18 -220 -75 -372 -233 -425 -441 -19 -77 -19 -235 1 -331 47 -231 205 -538
412 -804 l51 -64 -57 -61 c-196 -208 -393 -341 -574 -387 -108 -27 -263 -22
-353 12 -82 31 -186 101 -233 158 -165 200 -180 421 -47 716 303 674 1012
2096 1102 2210 87 112 186 158 333 154 85 -3 103 -7 162 -36z m0 -1359 c287
-135 289 -505 3 -957 -66 -105 -176 -256 -186 -256 -10 0 -146 188 -198 272
-189 311 -247 582 -164 760 33 69 96 138 158 170 74 39 116 48 220 45 88 -2
108 -6 167 -34z"/>
<path d="M6032 3039 c-151 -28 -233 -200 -162 -339 76 -147 267 -175 383 -55
110 113 77 301 -65 368 -65 31 -100 36 -156 26z"/>
<path d="M7480 2000 l0 -1040 153 0 c183 0 197 6 197 76 l0 45 48 -39 c95 -80
191 -112 331 -112 124 0 204 20 321 77 77 38 110 62 175 128 134 133 202 291
212 490 18 349 -173 637 -492 742 -69 23 -98 26 -210 27 -114 0 -137 -2 -190
-23 -61 -24 -154 -83 -168 -107 -24 -40 -27 7 -27 381 l0 395 -175 0 -175 0 0
-1040z m810 54 c76 -22 130 -55 183 -114 70 -77 91 -142 92 -276 0 -111 0
-112 -40 -190 -70 -136 -178 -202 -351 -211 -107 -6 -170 10 -250 63 -96 65
-94 57 -94 344 l0 250 40 40 c44 44 142 97 204 110 51 11 144 4 216 -16z"/>
<path d="M10560 2000 l0 -1040 154 0 c178 0 186 3 186 76 0 24 3 44 8 44 4 0
18 -12 32 -27 40 -42 110 -82 183 -105 99 -30 269 -23 382 16 268 92 459 335
483 617 21 247 -47 447 -208 610 -126 127 -280 196 -460 206 -151 8 -262 -25
-362 -109 l-48 -39 0 395 0 396 -175 0 -175 0 0 -1040z m740 69 c138 -22 250
-100 307 -217 26 -53 28 -65 28 -182 0 -114 -2 -130 -27 -182 -71 -153 -226
-237 -415 -226 -95 5 -170 37 -237 98 l-46 43 0 262 0 262 44 41 c52 48 106
77 179 97 64 17 85 18 167 4z"/>
<path d="M4821 2389 c-149 -29 -262 -90 -372 -199 -98 -97 -156 -197 -190
-327 -30 -110 -30 -288 0 -397 88 -328 356 -536 691 -536 143 0 241 34 325
111 l42 39 6 -47 c8 -70 16 -73 194 -73 l153 0 0 700 0 700 -159 0 c-154 0
-160 -1 -175 -22 -9 -12 -16 -38 -16 -56 l0 -34 -41 37 c-51 45 -145 91 -218
105 -63 12 -177 11 -240 -1z m351 -351 c31 -14 77 -45 102 -68 l46 -43 0 -265
0 -265 -42 -40 c-83 -79 -209 -116 -329 -98 -157 25 -260 95 -321 219 -32 64
-33 72 -33 182 0 137 21 201 90 277 83 93 189 134 335 130 78 -2 105 -8 152
-29z"/>
<path d="M7058 2381 c-67 -22 -135 -60 -183 -103 l-35 -30 0 39 c0 68 -13 73
-193 73 l-157 0 0 -700 0 -700 175 0 175 0 0 494 0 494 35 31 c46 40 116 75
184 91 54 13 216 9 254 -5 16 -7 17 5 17 153 0 103 -4 163 -11 167 -5 4 -54 9
-107 11 -77 3 -109 0 -154 -15z"/>
<path d="M9656 2384 c-72 -17 -148 -55 -203 -101 l-43 -34 0 36 c0 74 -2 75
-175 75 l-155 0 0 -700 0 -700 175 0 175 0 0 494 0 494 40 34 c74 64 144 91
246 96 146 7 216 -27 263 -127 l26 -56 3 -467 3 -468 175 0 175 0 -4 508 c-4
544 -4 547 -58 659 -33 71 -133 164 -221 207 -127 63 -290 82 -422 50z"/>
<path d="M5910 1660 l0 -700 175 0 175 0 0 700 0 700 -175 0 -175 0 0 -700z"/>
</g>
</svg>
